<?xml version="1.0" standalone="no"?>
<!DOCTYPE svg PUBLIC "-//W3C//DTD SVG 20010904//EN"
 "http://www.w3.org/TR/2001/REC-SVG-20010904/DTD/svg10.dtd">
<svg version="1.0" xmlns="http://www.w3.org/2000/svg"
 width="512.000000pt" height="512.000000pt" viewBox="0 0 512.000000 512.000000"
 preserveAspectRatio="xMidYMid meet">

<g transform="translate(0.000000,512.000000) scale(0.100000,-0.100000)"
fill="#000000" stroke="none">
<path d="M390 4974 c-152 -41 -271 -169 -300 -323 -15 -79 -14 -2853 1 -2923
37 -172 177 -303 351 -328 35 -5 370 -10 745 -10 l682 0 -5 -82 c-13 -192 -51
-382 -106 -535 l-29 -81 -182 -4 c-160 -3 -188 -6 -228 -24 -214 -99 -214
-409 0 -508 l46 -21 1195 0 1195 0 46 21 c176 82 218 315 81 452 -68 67 -105
77 -309 80 l-182 4 -30 77 c-55 143 -100 355 -116 544 l-6 77 688 0 c378 0
716 5 751 10 178 25 318 159 352 335 8 44 10 462 8 1535 l-3 1475 -28 56 c-32
66 -99 132 -165 162 l-47 22 -2175 2 c-1890 2 -2182 0 -2230 -13z m4408 -143
c46 -23 67 -46 87 -94 13 -32 15 -183 15 -1277 l0 -1240 -2340 0 -2340 0 2
1218 3 1217 22 40 c29 54 88 109 143 134 45 20 55 21 2208 21 2103 0 2164 -1
2200 -19z m100 -2923 c-3 -164 -4 -175 -30 -223 -33 -63 -69 -98 -133 -127
l-50 -23 -2125 0 -2125 0 -57 28 c-32 16 -73 47 -93 70 -53 62 -65 116 -65
294 l0 153 2341 0 2341 0 -4 -172z m-1788 -576 c0 -154 61 -457 126 -627 6
-13 -67 -15 -675 -15 -375 0 -681 4 -681 8 0 5 9 35 21 68 50 146 99 420 99
560 l0 64 555 0 555 0 0 -58z m634 -796 c49 -20 80 -69 80 -128 0 -57 -23 -94
-75 -120 -32 -17 -109 -18 -1187 -18 -960 0 -1158 2 -1186 14 -105 44 -106
206 -2 252 47 20 2321 20 2370 0z"/>
<path d="M3846 4628 c-14 -19 -16 -66 -16 -314 0 -257 2 -300 20 -368 30 -117
72 -189 170 -286 l85 -86 -86 -84 c-95 -93 -145 -177 -172 -286 -18 -72 -31
-620 -16 -664 11 -31 50 -53 76 -43 31 11 53 35 53 60 l0 23 249 0 249 0 7
-30 c7 -32 38 -60 66 -60 9 0 28 9 43 21 l26 20 0 302 c0 344 -6 382 -71 507
-29 56 -61 98 -119 155 l-80 77 83 81 c58 57 94 103 119 152 69 133 71 147 76
492 4 305 4 311 -17 332 -48 48 -121 13 -121 -59 l0 -40 -250 0 -250 0 0 38
c0 55 -23 82 -70 82 -29 0 -43 -6 -54 -22z m624 -278 l0 -40 -250 0 -250 0 0
40 0 40 250 0 250 0 0 -40z m-2 -212 l3 -38 -250 0 -251 0 0 40 0 40 248 -2
247 -3 3 -37z m-23 -195 c-4 -10 -10 -26 -12 -35 -5 -16 -24 -18 -213 -18
l-207 0 -11 25 c-7 14 -12 30 -12 35 0 6 91 10 231 10 216 0 231 -1 224 -17z
m-175 -233 c-25 -22 -49 -40 -55 -40 -5 1 -30 19 -55 40 l-45 40 100 0 100 -1
-45 -39z m16 -286 c35 -31 64 -60 64 -65 0 -5 -61 -9 -135 -9 -77 0 -135 4
-135 9 0 10 126 121 137 121 2 0 34 -25 69 -56z m158 -226 c16 -61 29 -58
-235 -58 -216 0 -241 2 -235 16 3 9 9 27 12 40 l6 24 223 0 c222 0 223 0 229
-22z m24 -230 l3 -38 -255 0 -256 0 0 33 c0 19 3 37 7 41 4 3 117 5 252 4
l246 -3 3 -37z m-8 -213 l0 -35 -250 0 -250 0 0 35 0 35 250 0 250 0 0 -35z"/>
<path d="M835 4215 c-24 -23 -25 -30 -25 -150 l0 -125 -125 0 c-120 0 -127 -1
-150 -25 l-25 -24 0 -221 c0 -278 -12 -260 170 -260 l130 0 0 -119 c0 -140 7
-164 51 -180 42 -14 395 -15 437 0 42 14 52 50 52 185 l0 114 129 0 c138 0
154 5 167 54 3 12 4 116 2 230 -4 260 6 246 -173 246 l-123 0 -4 131 c-4 180
13 169 -270 169 l-219 0 -24 -25z m375 -245 c0 -174 -4 -170 170 -170 l131 0
-3 -127 -3 -128 -131 -3 c-111 -2 -134 -5 -147 -20 -13 -14 -17 -46 -19 -147
l-3 -130 -127 -3 -128 -3 0 128 c0 179 6 173 -166 173 l-134 0 0 130 0 130
127 0 c174 0 173 -1 173 172 l0 128 130 0 130 0 0 -130z"/>
<path d="M2383 4166 c-139 -44 -221 -162 -210 -305 12 -156 86 -273 324 -508
189 -187 216 -205 275 -180 42 18 303 269 379 365 32 40 77 111 101 159 42 84
43 90 43 182 0 86 -3 101 -27 142 -56 96 -146 149 -264 157 -94 6 -167 -16
-225 -67 l-44 -39 -44 39 c-72 64 -203 87 -308 55z m185 -140 c15 -8 48 -37
73 -64 71 -79 126 -79 189 0 18 22 46 48 64 59 43 26 127 25 182 -2 120 -58
111 -205 -23 -382 -46 -61 -301 -317 -316 -317 -13 0 -199 178 -267 256 -112
126 -159 218 -160 311 0 45 5 57 32 89 18 20 46 43 63 50 40 18 129 17 163 0z"/>
<path d="M1858 3290 c-9 -6 -72 -97 -139 -203 -67 -105 -138 -216 -156 -245
l-34 -53 -34 44 c-19 25 -41 47 -50 51 -9 3 -214 6 -455 6 l-439 0 -20 -26
c-26 -33 -26 -55 -2 -85 l19 -24 420 -5 420 -5 54 -70 c95 -123 102 -119 284
166 145 227 147 231 159 202 6 -15 49 -138 95 -272 46 -135 92 -253 102 -263
23 -23 63 -23 86 0 11 11 52 110 93 220 41 111 76 202 79 201 3 0 51 -95 107
-210 140 -286 145 -287 290 -90 l88 120 278 3 279 3 19 24 c25 31 24 63 -4 89
-23 22 -29 22 -319 22 -163 0 -303 -3 -312 -6 -9 -3 -45 -46 -81 -95 -36 -49
-68 -89 -71 -89 -3 0 -54 99 -114 221 -60 122 -116 230 -126 240 -24 27 -68
24 -91 -5 -11 -13 -48 -102 -82 -197 -35 -96 -67 -177 -70 -181 -3 -4 -44 104
-91 240 -47 135 -93 254 -102 264 -20 20 -54 23 -80 8z"/>
<path d="M2343 1870 c-44 -18 -56 -77 -23 -110 19 -19 33 -20 240 -20 207 0
221 1 240 20 25 25 26 61 1 91 -19 24 -22 24 -228 26 -114 1 -218 -2 -230 -7z"/>
</g>
</svg>
