<?xml version="1.0" standalone="no"?>
<!DOCTYPE svg PUBLIC "-//W3C//DTD SVG 20010904//EN"
 "http://www.w3.org/TR/2001/REC-SVG-20010904/DTD/svg10.dtd">
<svg version="1.0" xmlns="http://www.w3.org/2000/svg"
 width="740.000000pt" height="690.000000pt" viewBox="0 0 740.000000 690.000000"
 preserveAspectRatio="xMidYMid meet">

<g transform="translate(0.000000,690.000000) scale(0.100000,-0.100000)"
fill="#000000" stroke="none">
<path d="M662 6770 c-167 -44 -303 -154 -371 -301 -22 -46 -44 -111 -51 -144
-8 -44 -10 -597 -8 -2045 l3 -1985 22 -59 c67 -177 203 -309 378 -367 32 -11
246 -15 1040 -19 l1000 -5 3 -45 c5 -61 -15 -271 -39 -405 -24 -140 -68 -305
-111 -420 l-33 -90 -235 -6 c-250 -7 -290 -14 -373 -62 -90 -53 -158 -157
-176 -266 -30 -185 77 -360 257 -420 l62 -21 1628 2 1627 3 60 30 c113 56 192
162 215 287 29 158 -65 336 -213 403 -76 35 -159 45 -375 45 l-193 0 -23 53
c-33 73 -83 233 -112 354 -48 205 -86 539 -62 554 7 5 453 9 992 9 1066 0
1034 -2 1150 57 156 78 275 232 305 398 16 84 15 4063 0 4137 -33 156 -165
291 -325 332 -56 14 -353 16 -3015 15 -2876 0 -2956 -1 -3027 -19z m6033 -189
c60 -27 101 -66 129 -123 l26 -52 0 -1713 0 -1713 -3215 0 -3215 0 2 1672 3
1673 28 57 c48 97 134 170 242 204 32 10 638 13 3000 13 2844 1 2962 0 3000
-18z m153 -4028 c-3 -234 -3 -239 -30 -295 -53 -114 -167 -197 -298 -218 -91
-14 -5680 -14 -5770 1 -134 21 -244 101 -298 217 -27 56 -27 61 -30 295 l-3
237 3216 0 3216 0 -3 -237z m-2474 -709 c12 -5 16 -21 16 -73 0 -200 77 -598
155 -807 14 -36 25 -70 25 -75 0 -5 -403 -9 -936 -9 -887 0 -936 1 -931 18 2
9 21 71 41 137 63 205 105 446 122 700 4 55 12 103 18 107 13 9 1467 11 1490
2z m848 -1165 c99 -21 169 -123 153 -220 -9 -54 -58 -117 -108 -140 -41 -18
-91 -19 -1632 -19 -1541 0 -1591 1 -1632 19 -51 24 -98 86 -107 141 -15 94 48
191 139 215 67 18 3104 21 3187 4z"/>
<path d="M5445 6321 c-11 -5 -29 -19 -40 -31 -19 -21 -20 -38 -23 -339 -4
-399 7 -551 48 -668 47 -137 99 -215 223 -336 62 -61 106 -112 101 -116 -5 -5
-37 -32 -72 -60 -137 -113 -241 -281 -281 -451 -18 -77 -20 -124 -22 -490 0
-223 2 -413 6 -423 9 -23 56 -47 90 -47 34 0 85 50 85 84 0 18 6 27 23 31 12
3 166 4 341 3 l319 -3 15 -43 c22 -66 80 -93 137 -62 43 23 45 40 45 463 0
367 -2 409 -20 485 -41 172 -124 308 -267 441 l-88 82 83 76 c143 131 229 265
274 430 20 73 22 106 26 482 2 222 1 414 -2 427 -10 39 -42 64 -82 64 -68 0
-104 -43 -104 -125 l0 -45 -342 2 -343 3 -5 62 c-4 44 -11 68 -25 82 -23 24
-71 34 -100 22z m815 -411 l0 -50 -345 0 -345 0 0 49 c0 27 4 51 10 53 5 2
161 2 345 0 l335 -3 0 -49z m-2 -292 l-3 -53 -340 0 -340 0 -3 53 -3 52 346 0
346 0 -3 -52z m-32 -253 c3 -8 -2 -31 -13 -52 l-18 -38 -280 0 -280 0 -18 38
c-34 69 -43 67 298 67 260 0 306 -2 311 -15z m-192 -284 c6 -9 -104 -111 -119
-111 -5 0 -28 17 -53 38 -25 20 -52 42 -60 48 -8 6 -12 16 -8 22 9 14 232 17
240 3z m-28 -442 c46 -38 84 -77 84 -85 0 -12 -29 -14 -180 -14 -119 0 -180 4
-180 10 0 18 162 160 182 160 6 0 48 -32 94 -71z m223 -326 c6 -21 11 -44 11
-50 0 -10 -73 -13 -330 -13 -239 0 -330 3 -330 11 0 7 5 29 12 50 l11 39 308
0 308 0 10 -37z m29 -305 l3 -48 -350 0 -351 0 0 43 c0 24 3 47 7 50 4 4 160
6 347 5 l341 -3 3 -47z m-3 -259 c4 -11 4 -36 0 -55 l-6 -34 -342 2 -342 3 -3
39 c-6 70 -28 66 347 66 336 0 340 0 346 -21z"/>
<path d="M1295 5751 c-11 -5 -29 -19 -40 -31 -18 -20 -21 -40 -25 -199 l-5
-176 -178 -5 -179 -5 -24 -28 -24 -28 0 -294 c0 -170 4 -305 10 -320 17 -45
61 -55 240 -55 l160 0 0 -160 c0 -179 10 -223 55 -240 37 -14 597 -13 628 1
41 19 47 45 50 224 l2 170 175 5 c96 3 183 9 192 14 9 4 24 23 33 42 14 29 15
74 13 329 -3 291 -3 295 -26 317 -21 22 -32 23 -205 28 l-182 5 -6 185 c-3
102 -6 186 -7 188 -1 1 -17 11 -34 22 -31 19 -51 20 -318 19 -157 0 -294 -4
-305 -8z m485 -366 c3 -99 9 -186 14 -194 20 -32 74 -41 236 -41 l160 0 -2
-172 -3 -173 -177 -5 c-240 -7 -227 7 -230 -229 l-3 -176 -177 -3 -178 -2 0
176 0 176 -29 29 -29 29 -176 0 -176 0 0 175 0 175 159 0 c87 0 172 5 189 11
56 19 62 40 62 227 0 93 3 172 7 176 4 3 84 5 177 4 l171 -3 5 -180z"/>
<path d="M3456 5669 c-134 -20 -269 -118 -324 -236 -24 -52 -27 -69 -26 -168
0 -93 4 -120 26 -177 63 -167 162 -300 384 -519 350 -345 349 -345 532 -181
337 301 513 519 577 715 24 75 27 97 23 184 -3 88 -7 104 -37 160 -87 163
-264 247 -468 222 -91 -11 -159 -43 -219 -101 l-42 -40 -58 48 c-32 26 -78 56
-101 66 -35 15 -165 39 -198 36 -5 0 -37 -4 -69 -9z m202 -211 c26 -12 59 -41
83 -73 45 -60 70 -79 115 -89 48 -11 83 9 164 94 70 72 79 79 134 90 45 9 73
9 114 1 145 -29 215 -127 191 -266 -28 -159 -176 -356 -472 -627 l-108 -99
-39 31 c-82 65 -349 339 -410 420 -93 124 -132 215 -138 315 -3 71 -1 84 20
114 76 111 223 149 346 89z"/>
<path d="M2657 4438 c-13 -13 -111 -160 -217 -328 -190 -300 -217 -340 -229
-340 -3 0 -22 23 -41 51 -19 28 -43 57 -54 65 -17 12 -124 14 -629 14 l-609 0
-29 -29 c-31 -31 -36 -64 -18 -104 24 -53 10 -52 622 -55 l567 -3 70 -93 c90
-119 134 -139 193 -88 10 9 100 145 199 302 185 292 203 318 213 308 6 -6 25
-60 179 -503 42 -121 83 -229 91 -241 32 -50 122 -46 151 6 7 14 57 143 110
288 53 144 101 262 106 262 5 0 72 -128 148 -284 85 -175 146 -289 159 -295
22 -12 70 -14 95 -5 8 3 72 82 142 175 l126 169 357 1 c400 0 415 2 444 61 16
33 17 40 3 71 -8 20 -23 40 -34 46 -14 7 -157 11 -434 11 l-414 0 -31 -32
c-17 -18 -63 -77 -103 -130 -40 -54 -76 -98 -81 -98 -5 0 -78 141 -162 313
-99 201 -162 320 -178 330 -49 35 -105 14 -138 -51 -10 -20 -53 -134 -96 -252
-75 -208 -89 -239 -100 -229 -2 3 -56 153 -119 333 -72 204 -124 338 -137 352
-30 32 -89 33 -122 2z"/>
<path d="M3334 2500 c-57 -23 -71 -99 -28 -149 l26 -31 300 0 300 0 29 29 c37
38 39 88 5 128 l-24 28 -294 2 c-161 1 -303 -2 -314 -7z"/>
</g>
</svg>
